# This file uses meters as units for non-parametric coordinates.

mtllib shadow level floor.mtl
g default
v 1.375315 -0.149633 69.335125
v 1.375315 -0.129966 59.886853
v 1.375315 -0.129966 34.244096
v 1.375315 -0.149633 93.466211
v -40.825593 0.203374 59.886853
v -40.825593 -0.149633 69.335125
v -40.825593 0.203374 34.244096
v -31.078517 -0.149633 93.466211
v -31.078517 -0.149633 69.335125
v -31.078517 0.145375 59.886853
v -31.078517 0.145375 34.244096
v 1.375315 -0.149633 82.349987
v -31.078517 -0.149633 82.349987
v -40.825607 -0.149633 82.349987
v -31.078517 0.145375 -41.110751
v 1.375315 -0.129966 -41.110751
v -31.078517 0.145375 -88.246623
v 1.375315 -0.129966 -88.246623
v 115.740316 -0.129966 -41.110751
v 115.740316 -0.129966 -88.246623
v 135.304529 -0.129966 -41.110751
v 135.304529 -0.129966 -88.246623
v 240.469666 -0.129966 -41.110751
v 240.469666 -0.129966 -88.246623
v 254.619516 -0.129966 -41.110751
v 254.619516 -0.129966 -88.246623
v 272.428741 -0.129966 -41.110751
v 272.428741 -0.129966 -88.246623
v 115.740316 -0.129966 -21.719541
v 135.304529 -0.129966 -21.719541
v 240.469666 -0.129966 -21.719541
v 254.619516 -0.129966 -21.719541
v 115.740316 -0.129966 -109.179168
v 135.304529 -0.129966 -109.179168
v 115.740316 -0.129966 -4.818345
v 135.304529 -0.129966 -4.818345
v 240.469666 -0.129966 -4.818345
v 254.619516 -0.129966 -4.818345
v 152.016408 -0.129966 -21.719541
v 152.016408 -0.129966 -4.818345
v 99.644347 -0.129966 -21.719541
v 99.644347 -0.129966 -4.818345
v 115.740316 -0.129966 39.196358
v 135.304529 -0.129966 39.196358
v 152.016408 -0.129966 39.196358
v 99.644347 -0.129966 39.196358
v 185.011929 -0.129966 -21.719541
v 185.011929 -0.129966 -4.818345
v 304.393436 -0.129966 -21.719541
v 304.393436 -0.129966 -4.818345
v 240.469666 -0.129966 102.589463
v 254.619516 -0.129966 102.589463
v 185.011929 -0.129966 102.589463
v 304.393436 -0.129966 102.589463
v 115.740316 -0.129966 -127.306015
v 135.304529 -0.129966 -127.306015
v 98.160441 -0.129966 -109.179168
v 98.160441 -0.129966 -127.306015
v 150.579182 -0.129966 -109.179168
v 150.579182 -0.129966 -127.306015
v 115.740316 -0.129966 -163.011837
v 135.304529 -0.129966 -163.011837
v 98.160441 -0.129966 -163.011837
v 150.579182 -0.129966 -163.011837
v -301.716044 -0.149633 148.185705
v -242.779356 -0.149633 148.185705
v -301.716044 -0.149633 54.843649
v -242.779356 -0.149633 54.843649
v -242.779356 -0.149633 69.335125
v -301.716044 -0.149633 69.335125
v -242.779356 -0.149633 133.694239
v -301.716044 -0.149633 133.694239
v -200.649985 -0.149633 133.694239
v -200.649985 -0.149633 69.335125
v -189.331483 -0.149633 133.694239
v -189.331483 -0.149633 69.335125
v -200.649985 -0.551215 151.970894
v -189.331483 -0.551215 151.970894
v -200.649985 0.556380 50.438581
v -189.331483 0.556380 50.438581
v -116.141812 -0.149633 133.694239
v -116.141812 -0.149633 69.335125
v -116.141812 -0.551215 151.970894
v -116.141812 0.556380 50.438581
v -116.141812 0.203374 59.886853
v -189.331483 0.203374 59.886853
v -200.649985 0.203374 59.886853
v -116.141812 -0.350424 142.832568
v -189.331483 -0.350424 142.832568
v -200.649985 -0.350424 142.832568
v -103.133121 -0.149633 133.694239
v -103.133121 -0.350424 142.832568
v -103.133121 -0.149633 69.335125
v -103.133121 0.203374 59.886853
v -91.264309 -0.149633 133.694239
v -91.264309 -0.350424 142.832568
v -91.264309 -0.149633 69.335125
v -91.264309 0.203374 59.886853
v -103.133121 -0.350424 159.507505
v -91.264309 -0.350424 159.507505
v -103.133121 0.203374 34.244096
v -91.264309 0.203374 34.244096
v -103.133121 -0.149633 93.466211
v -91.264309 -0.149633 93.466211
v -103.133121 -0.149633 117.359582
v -91.264309 -0.149633 117.359582
v -49.764899 -0.149633 69.335125
v -49.764899 0.203374 59.886853
v -49.764899 0.203374 34.244096
v -49.764899 -0.149633 93.466211
v 1.271192 -0.149633 133.694239
v 1.271192 -0.350424 142.832568
v 1.271192 -0.350424 159.507505
v 1.271192 -0.149633 117.359582
v 1.271192 -0.149633 125.526911
v -91.264309 -0.149633 125.526911
v -103.133121 -0.149633 125.526911
v 12.407255 -0.149633 133.694239
v 12.407255 -0.149633 125.526911
v 18.885268 -0.149633 133.694239
v 18.885268 -0.149633 125.526911
v 12.407255 -0.149633 142.680846
v 18.885268 -0.149633 142.680846
v 12.407255 -0.149633 66.712766
v 18.885268 -0.149633 66.712766
v 62.828251 -0.149633 133.694239
v 62.828251 -0.149633 125.526911
v 62.828251 -0.149633 142.680846
v 62.828251 -0.149633 66.712766
v 27.465092 -0.149633 66.712766
v 27.465092 -0.149633 125.526911
v 27.465092 -0.149633 133.694239
v 27.465092 -0.149633 142.680846
v 18.885268 -0.149633 48.223929
v 27.465092 -0.149633 48.223929
v 18.885268 -0.149633 39.198030
v 27.465092 -0.149633 39.198030
v 1.351511 -0.149633 48.223929
v 1.351511 -0.149633 39.198030
v -143.194124 -0.551215 151.970894
v -143.194124 -0.350424 142.832568
v -143.194124 -0.149633 133.694239
v -143.194124 -0.149633 69.335125
v -143.194124 0.203374 59.886853
v -143.194124 0.556380 50.438581
v -124.766025 -0.551215 151.970894
v -124.766025 -0.350424 142.832568
v -124.766025 -0.149633 133.694239
v -124.766025 -0.149633 69.335125
v -124.766025 0.203374 59.886853
v -124.766025 0.556380 50.438581
v -116.141812 -0.149633 120.778743
v -124.766025 -0.149633 120.778743
v -143.194124 -0.149633 120.778743
v -189.331476 -0.149633 120.778743
v -200.649985 -0.149633 120.778743
v -242.779356 -0.149633 120.778743
v -301.716044 -0.149633 120.778743
v -116.141812 -0.149633 85.626612
v -124.766025 -0.149633 85.626612
v -143.194124 -0.149633 85.626612
v -189.331483 -0.149633 85.626612
v -200.649985 -0.149633 85.626612
v -242.779356 -0.149633 85.626612
v -301.716044 -0.149633 85.626612
vt 0.833402 0.106329
vt 0.833408 0.076395
vt 0.864267 0.076399
vt 0.864262 0.106327
vt 0.833407 0.187513
vt 0.864267 0.187511
vt 0.864271 0.035194
vt 0.864274 0.000000
vt 0.967023 0.000009
vt 0.967020 0.035202
vt 0.967016 0.076407
vt 0.967014 0.106320
vt 0.967019 0.187505
vt 0.833413 0.035190
vt 0.967034 0.426078
vt 0.864281 0.426084
vt 0.000000 0.542958
vt 0.864290 0.575316
vt 0.362080 0.393730
vt 0.737578 0.763273
vt 0.913150 0.829572
vt 0.424018 0.542962
vt 0.756971 0.393733
vt 0.756970 0.542965
vt 0.745621 0.061392
vt 0.801768 0.542965
vt 0.858154 0.393734
vt 0.858152 0.542966
vt 0.851215 0.768174
vt 0.913155 0.768179
vt 0.700816 0.000005
vt 0.220550 0.393630
vt 0.799505 0.829557
vt 0.737565 0.829545
vt 0.851220 0.714665
vt 0.913160 0.714670
vt 0.175728 0.340141
vt 0.220526 0.340121
vt 0.966070 0.714675
vt 0.966065 0.768184
vt 0.800256 0.768169
vt 0.800261 0.714660
vt 0.851233 0.575315
vt 0.913173 0.575320
vt 0.966082 0.575325
vt 0.800273 0.575310
vt 0.000173 0.393727
vt 0.000149 0.340218
vt 0.378110 0.340052
vt 0.378133 0.393561
vt 0.175579 0.000089
vt 0.220377 0.000069
vt 0.000000 0.000166
vt 0.377961 0.000000
vt 0.799494 0.886946
vt 0.737554 0.886935
vt 0.681896 0.886924
vt 0.681907 0.829535
vt 0.847865 0.829566
vt 0.847854 0.886956
vt 0.799473 0.999991
vt 0.737532 0.999979
vt 0.681875 0.999968
vt 0.847832 1.000000
vt 0.378819 0.000001
vt 0.565412 0.000000
vt 0.565413 0.045880
vt 0.378820 0.045881
vt 0.378821 0.249642
vt 0.565414 0.249640
vt 0.565415 0.295520
vt 0.378822 0.295521
vt 0.565413 0.086770
vt 0.378820 0.086772
vt 0.698794 0.045879
vt 0.698794 0.086769
vt 0.035853 0.600839
vt 0.035850 0.641729
vt 0.035855 0.571900
vt 0.000021 0.571897
vt 0.000023 0.542959
vt 0.035857 0.542961
vt 0.000004 0.804596
vt 0.035839 0.804599
vt 0.035836 0.834533
vt 0.000002 0.834530
vt 0.181924 0.600849
vt 0.181921 0.641740
vt 0.181928 0.542972
vt 0.181926 0.571910
vt 0.181909 0.804609
vt 0.181907 0.834543
vt 0.035834 0.864467
vt 0.181905 0.864478
vt 0.000000 0.864464
vt 0.568240 0.028955
vt 0.267573 0.571916
vt 0.609414 0.000000
vt 0.468796 0.624694
vt 0.468994 0.784213
vt 0.267556 0.804616
vt 0.509973 0.753997
vt 0.510179 0.783930
vt 0.506377 0.595761
vt 0.506373 0.624699
vt 0.547549 0.753739
vt 0.547754 0.783672
vt 0.468808 0.542962
vt 0.506385 0.542968
vt 0.548312 0.864855
vt 0.510736 0.865113
vt 0.509449 0.677600
vt 0.547024 0.677342
vt 0.506369 0.650557
vt 0.468793 0.650552
vt 0.678932 0.752837
vt 0.679138 0.782770
vt 0.679695 0.863953
vt 0.678408 0.676440
vt 0.799343 0.595803
vt 0.799339 0.624742
vt 0.799351 0.543011
vt 0.270033 0.598208
vt 0.506365 0.676415
vt 0.799332 0.676457
vt 0.468789 0.676409
vt 0.305165 0.572181
vt 0.305289 0.598038
vt 0.325674 0.572082
vt 0.325798 0.597940
vt 0.305028 0.543730
vt 0.325537 0.543631
vt 0.326694 0.784142
vt 0.306184 0.784241
vt 0.352962 0.597809
vt 0.352837 0.571952
vt 0.464795 0.571413
vt 0.464920 0.597271
vt 0.352701 0.543500
vt 0.464659 0.542962
vt 0.353857 0.784012
vt 0.465815 0.783473
vt 0.354138 0.842547
vt 0.326975 0.842677
vt 0.354276 0.871122
vt 0.327112 0.871253
vt 0.271601 0.871520
vt 0.271464 0.842944
vt 0.240271 0.542976
vt 0.240269 0.571915
vt 0.240250 0.834548
vt 0.240248 0.864482
vt 0.267575 0.542978
vt 0.240267 0.600853
vt 0.240264 0.641744
vt 0.267568 0.641746
vt 0.240252 0.804614
vt 0.267552 0.864484
vt 0.240256 0.753035
vt 0.267560 0.753037
vt 0.181913 0.753031
vt 0.035842 0.753020
vt 0.698795 0.198060
vt 0.565414 0.198061
vt 0.378821 0.198063
vt 0.000008 0.753018
vt 0.698795 0.249639
vt 0.468789 0.754279
vt 0.000016 0.641727
vt 0.568229 0.000016
vt 0.267554 0.834550
vt 0.267571 0.600855
vt 0.000019 0.600836
vt 0.799335 0.650600
vt 0.269909 0.572350
vt 0.609425 0.028939
vt 0.468801 0.595755
vt 0.745614 0.000000
vt 0.175751 0.393650
vt 0.967043 0.575309
vt 0.000001 0.393727
vt 0.801770 0.393734
vt 0.700823 0.061398
vt 0.799518 0.763285
vt 0.424020 0.393730
vt 0.362078 0.542962
vt 0.851210 0.829566
vn 0.002973 0.999408 0.034272
vn 0.002973 0.999408 0.034272
vn 0.003949 0.999777 0.020722
vn 0.003948 0.999777 0.020723
vn 0.005950 0.999982 0.000000
vn 0.005950 0.999982 0.000000
vn 0.007899 0.999969 0.000000
vn 0.007899 0.999969 0.000000
vn 0.000000 1.000000 0.000000
vn 0.000000 1.000000 0.000000
vn 0.000000 1.000000 0.000000
vn 0.000000 1.000000 0.000000
vn 0.004241 0.999852 0.016650
vn 0.004241 0.999852 0.016650
vn 0.008484 0.999964 0.000000
vn 0.008484 0.999964 0.000000
vn 0.000000 1.000000 0.000000
vn 0.000000 1.000000 0.000000
vn 0.000000 1.000000 0.000000
vn 0.000000 1.000000 0.000000
vn 0.008484 0.999964 0.000000
vn 0.008484 0.999964 0.000000
vn 0.008484 0.999964 0.000000
vn 0.008484 0.999964 0.000000
vn 0.008484 0.999964 0.000000
vn 0.008484 0.999964 0.000000
vn 0.008484 0.999964 0.000000
vn 0.008484 0.999964 0.000000
vn 0.000000 1.000000 0.000000
vn 0.000000 1.000000 0.000000
vn 0.000000 1.000000 0.000000
vn 0.000000 1.000000 0.000000
vn 0.000000 1.000000 0.000000
vn 0.000000 1.000000 0.000000
vn 0.000000 1.000000 0.000000
vn 0.000000 1.000000 0.000000
vn 0.000000 1.000000 0.000000
vn 0.000000 1.000000 0.000000
vn 0.000000 1.000000 0.000000
vn 0.000000 1.000000 0.000000
vn 0.000000 1.000000 0.000000
vn 0.000000 1.000000 0.000000
vn 0.000000 1.000000 0.000000
vn 0.000000 1.000000 0.000000
vn 0.000000 1.000000 0.000000
vn 0.000000 1.000000 0.000000
vn 0.000000 1.000000 0.000000
vn 0.000000 1.000000 0.000000
vn 0.000000 1.000000 0.000000
vn 0.000000 1.000000 0.000000
vn 0.000000 1.000000 0.000000
vn 0.000000 1.000000 0.000000
vn 0.000000 1.000000 0.000000
vn 0.000000 1.000000 0.000000
vn 0.000000 1.000000 0.000000
vn 0.000000 1.000000 0.000000
vn 0.000000 1.000000 0.000000
vn 0.000000 1.000000 0.000000
vn 0.000000 1.000000 0.000000
vn 0.000000 1.000000 0.000000
vn 0.000000 1.000000 0.000000
vn 0.000000 1.000000 0.000000
vn 0.000000 1.000000 0.000000
vn 0.000000 1.000000 0.000000
vn 0.000000 1.000000 0.000000
vn 0.000000 1.000000 0.000000
vn 0.000000 1.000000 0.000000
vn 0.000000 1.000000 0.000000
vn 0.000000 1.000000 0.000000
vn 0.000000 1.000000 0.000000
vn 0.000000 1.000000 0.000000
vn 0.000000 1.000000 0.000000
vn 0.000000 1.000000 0.000000
vn 0.000000 1.000000 0.000000
vn 0.000000 1.000000 0.000000
vn 0.000000 1.000000 0.000000
vn 0.000000 1.000000 0.000000
vn 0.000000 1.000000 0.000000
vn 0.000000 1.000000 0.000000
vn 0.000000 1.000000 0.000000
vn 0.000000 1.000000 0.000000
vn 0.000000 1.000000 0.000000
vn 0.000000 1.000000 0.000000
vn 0.000000 1.000000 0.000000
vn 0.000000 1.000000 0.000000
vn 0.000000 1.000000 0.000000
vn 0.000000 1.000000 0.000000
vn 0.000000 1.000000 0.000000
vn 0.000000 1.000000 0.000000
vn 0.000000 1.000000 0.000000
vn 0.000000 1.000000 0.000000
vn 0.000000 1.000000 0.000000
vn 0.000000 1.000000 0.000000
vn 0.000000 1.000000 0.000000
vn 0.000000 1.000000 0.000000
vn 0.000000 1.000000 0.000000
vn 0.000000 1.000000 0.000000
vn 0.000000 1.000000 0.000000
vn 0.000000 1.000000 0.000000
vn 0.000000 1.000000 0.000000
vn 0.000000 1.000000 0.000000
vn 0.000000 1.000000 0.000000
vn 0.000000 1.000000 0.000000
vn 0.000000 1.000000 0.000000
vn 0.000000 1.000000 0.000000
vn 0.000000 1.000000 0.000000
vn 0.000000 1.000000 0.000000
vn 0.000000 1.000000 0.000000
vn 0.000000 1.000000 0.000000
vn 0.000000 1.000000 0.000000
vn 0.000000 1.000000 0.000000
vn 0.000000 1.000000 0.000000
vn 0.000000 1.000000 0.000000
vn 0.000000 1.000000 0.000000
vn 0.000000 1.000000 0.000000
vn 0.000000 1.000000 0.000000
vn 0.000000 1.000000 0.000000
vn 0.000000 1.000000 0.000000
vn 0.000000 1.000000 0.000000
vn 0.000000 1.000000 0.000000
vn 0.000000 1.000000 0.000000
vn 0.000000 1.000000 0.000000
vn 0.000000 1.000000 0.000000
vn 0.000000 1.000000 0.000000
vn 0.000000 1.000000 0.000000
vn 0.000000 1.000000 0.000000
vn 0.000000 1.000000 0.000000
vn 0.000000 1.000000 0.000000
vn 0.000000 1.000000 0.000000
vn 0.000000 1.000000 0.000000
vn 0.000000 1.000000 0.000000
vn 0.000000 1.000000 0.000000
vn 0.000000 1.000000 0.000000
vn 0.000000 1.000000 0.000000
vn 0.000000 1.000000 0.000000
vn 0.000000 1.000000 0.000000
vn 0.000000 1.000000 0.000000
vn 0.000000 1.000000 0.000000
vn 0.000000 1.000000 0.000000
vn 0.000000 1.000000 0.000000
vn 0.000000 1.000000 0.000000
vn 0.000000 1.000000 0.000000
vn 0.000000 1.000000 0.000000
vn 0.000000 1.000000 0.000000
vn 0.000000 1.000000 0.000000
vn 0.000000 1.000000 0.000000
vn 0.000000 1.000000 0.000000
vn 0.000000 1.000000 0.000000
vn 0.000000 1.000000 0.000000
vn 0.000000 1.000000 0.000000
vn 0.000000 0.999759 0.021967
vn 0.000000 0.999759 0.021967
vn 0.000000 0.999759 0.021967
vn 0.000000 0.999759 0.021967
vn 0.000000 0.999303 0.037336
vn 0.000000 0.999303 0.037336
vn 0.000000 0.999303 0.037336
vn 0.000000 0.999303 0.037336
vn 0.000000 1.000000 0.000000
vn 0.000000 1.000000 0.000000
vn 0.000000 1.000000 0.000000
vn 0.000000 1.000000 0.000000
vn 0.000000 0.999759 0.021967
vn 0.000000 0.999759 0.021967
vn 0.000000 0.999759 0.021967
vn 0.000000 0.999759 0.021967
vn 0.000000 0.999303 0.037336
vn 0.000000 0.999303 0.037336
vn 0.000000 0.999303 0.037336
vn 0.000000 0.999303 0.037336
vn 0.000000 0.999303 0.037336
vn 0.000000 0.999303 0.037336
vn 0.000000 0.999303 0.037336
vn 0.000000 0.999303 0.037336
vn 0.000000 0.999759 0.021967
vn 0.000000 0.999759 0.021967
vn 0.000000 0.999759 0.021967
vn 0.000000 0.999759 0.021967
vn 0.000000 0.999759 0.021967
vn 0.000000 0.999759 0.021967
vn 0.000000 0.999759 0.021967
vn 0.000000 0.999759 0.021967
vn 0.000000 0.999303 0.037336
vn 0.000000 0.999303 0.037336
vn 0.000000 0.999303 0.037336
vn 0.000000 0.999303 0.037336
vn 0.000000 0.999759 0.021967
vn 0.000000 0.999759 0.021967
vn 0.000000 0.999759 0.021967
vn 0.000000 0.999759 0.021967
vn 0.000000 0.999303 0.037336
vn 0.000000 0.999303 0.037336
vn 0.000000 0.999303 0.037336
vn 0.000000 0.999303 0.037336
vn 0.000000 1.000000 0.000000
vn 0.000000 1.000000 0.000000
vn 0.000000 1.000000 0.000000
vn 0.000000 1.000000 0.000000
vn 0.000000 1.000000 0.000000
vn 0.000000 1.000000 0.000000
vn 0.000000 1.000000 0.000000
vn 0.000000 1.000000 0.000000
vn 0.000000 1.000000 0.000000
vn 0.000000 1.000000 0.000000
vn 0.000000 1.000000 0.000000
vn 0.000000 1.000000 0.000000
vn 0.000000 1.000000 0.000000
vn 0.000000 1.000000 0.000000
vn 0.000000 1.000000 0.000000
vn 0.000000 1.000000 0.000000
vn 0.000000 0.999303 0.037336
vn 0.000000 0.999303 0.037336
vn 0.000000 0.999303 0.037336
vn 0.000000 0.999303 0.037336
vn 0.000000 1.000000 0.000000
vn 0.000000 1.000000 0.000000
vn 0.000000 1.000000 0.000000
vn 0.000000 1.000000 0.000000
vn 0.000000 1.000000 0.000000
vn 0.000000 1.000000 0.000000
vn 0.000000 1.000000 0.000000
vn 0.000000 1.000000 0.000000
vn 0.000000 0.999759 0.021967
vn 0.000000 0.999759 0.021967
vn 0.000000 0.999759 0.021967
vn 0.000000 0.999759 0.021967
vn 0.000000 1.000000 0.000000
vn 0.000000 1.000000 0.000000
vn 0.000000 1.000000 0.000000
vn 0.000000 1.000000 0.000000
vn 0.000000 1.000000 0.000000
vn 0.000000 1.000000 0.000000
vn 0.000000 1.000000 0.000000
vn 0.000000 1.000000 0.000000
vn 0.000000 1.000000 0.000000
vn 0.000000 1.000000 0.000000
vn 0.000000 1.000000 0.000000
vn 0.000000 1.000000 0.000000
vn 0.000000 1.000000 0.000000
vn 0.000000 1.000000 0.000000
vn 0.000000 1.000000 0.000000
vn 0.000000 1.000000 0.000000
vn 0.000000 1.000000 0.000000
vn 0.000000 1.000000 0.000000
vn 0.000000 1.000000 0.000000
vn 0.000000 1.000000 0.000000
vn 0.000000 1.000000 0.000000
vn 0.000000 1.000000 0.000000
vn 0.000000 1.000000 0.000000
vn 0.000000 1.000000 0.000000
vn 0.000000 1.000000 0.000000
vn 0.000000 1.000000 0.000000
vn 0.000000 1.000000 0.000000
vn 0.000000 1.000000 0.000000
vn 0.000000 1.000000 0.000000
vn 0.000000 1.000000 0.000000
vn 0.000000 1.000000 0.000000
vn 0.000000 1.000000 0.000000
vn 0.000000 1.000000 0.000000
vn 0.000000 1.000000 0.000000
vn 0.000000 1.000000 0.000000
vn 0.000000 1.000000 0.000000
vn 0.000000 1.000000 0.000000
vn 0.000000 1.000000 0.000000
vn 0.000000 1.000000 0.000000
vn 0.000000 1.000000 0.000000
vn 0.000000 1.000000 0.000000
vn 0.000000 1.000000 0.000000
vn 0.000000 1.000000 0.000000
vn 0.000000 1.000000 0.000000
vn 0.000000 1.000000 0.000000
vn 0.000000 1.000000 0.000000
vn 0.000000 1.000000 0.000000
vn 0.000000 1.000000 0.000000
vn 0.000000 1.000000 0.000000
vn 0.000000 1.000000 0.000000
vn 0.000000 1.000000 0.000000
vn 0.000000 1.000000 0.000000
vn 0.000000 1.000000 0.000000
vn 0.000000 1.000000 0.000000
vn 0.000000 1.000000 0.000000
vn 0.000000 1.000000 0.000000
vn 0.000000 1.000000 0.000000
vn 0.000000 1.000000 0.000000
vn 0.000000 0.999759 0.021967
vn 0.000000 0.999759 0.021967
vn 0.000000 0.999303 0.037336
vn 0.000000 0.999303 0.037336
vn 0.000000 0.999759 0.021967
vn 0.000000 0.999759 0.021967
vn 0.000000 0.999759 0.021967
vn 0.000000 0.999759 0.021967
vn 0.000000 1.000000 0.000000
vn 0.000000 1.000000 0.000000
vn 0.000000 1.000000 0.000000
vn 0.000000 1.000000 0.000000
vn 0.000000 0.999303 0.037336
vn 0.000000 0.999303 0.037336
vn 0.000000 0.999303 0.037336
vn 0.000000 0.999303 0.037336
vn 0.000000 1.000000 0.000000
vn 0.000000 1.000000 0.000000
vn 0.000000 1.000000 0.000000
vn 0.000000 1.000000 0.000000
vn 0.000000 1.000000 0.000000
vn 0.000000 1.000000 0.000000
vn 0.000000 1.000000 0.000000
vn 0.000000 1.000000 0.000000
vn 0.000000 1.000000 0.000000
vn 0.000000 1.000000 0.000000
vn 0.000000 1.000000 0.000000
vn 0.000000 1.000000 0.000000
vn 0.000000 1.000000 0.000000
vn 0.000000 1.000000 0.000000
vn 0.000000 1.000000 0.000000
vn 0.000000 1.000000 0.000000
vn 0.000000 1.000000 0.000000
vn 0.000000 1.000000 0.000000
s 1
g floor_for_shadow
usemtl initialShadingGroup
f 5/1/1 6/2/2 9/3/3 10/4/4
s 2
f 7/5/5 5/1/6 10/4/7 11/6/8
s 3
f 13/7/9 8/8/10 4/9/11 12/10/12
s 1
f 10/4/4 9/3/3 1/11/13 2/12/14
s 2
f 11/6/8 10/4/7 2/12/15 3/13/16
s 3
f 9/3/17 13/7/9 12/10/12 1/11/18
f 6/2/19 14/14/20 13/7/9 9/3/17
s off
f 11/6/21 3/13/22 16/15/23 15/16/24
f 15/16/25 16/15/26 18/180/27 17/18/28
f 18/17/29 16/181/30 19/19/31 20/186/32
f 20/186/33 19/19/34 21/185/35 22/22/36
f 22/22/37 21/185/38 23/23/39 24/24/40
f 24/24/41 23/23/42 25/182/43 26/26/44
f 26/26/45 25/182/46 27/27/47 28/28/48
f 21/21/49 19/187/50 29/29/51 30/30/52
f 25/25/53 23/183/54 31/31/55 32/178/56
f 20/20/57 22/184/58 34/33/59 33/34/60
f 30/30/61 29/29/62 35/35/63 36/36/64
f 32/32/65 31/179/66 37/37/67 38/38/68
f 30/30/69 36/36/70 40/39/71 39/40/72
f 35/35/73 29/29/74 41/41/75 42/42/76
f 36/36/77 35/35/78 43/43/79 44/44/80
f 40/39/81 36/36/82 44/44/83 45/45/84
f 35/35/85 42/42/86 46/46/87 43/43/88
f 37/37/89 31/179/90 47/47/91 48/48/92
f 32/32/93 38/38/94 50/49/95 49/50/96
f 38/38/97 37/37/98 51/51/99 52/52/100
f 37/37/101 48/48/102 53/53/103 51/51/104
f 50/49/105 38/38/106 52/52/107 54/54/108
f 33/34/109 34/33/110 56/55/111 55/56/112
f 33/34/113 55/56/114 58/57/115 57/58/116
f 56/55/117 34/33/118 59/59/119 60/60/120
f 55/56/121 56/55/122 62/61/123 61/62/124
f 58/57/125 55/56/126 61/62/127 63/63/128
f 56/55/129 60/60/130 64/64/131 62/61/132
s 4
f 65/65/133 66/66/134 71/67/135 72/68/136
f 70/69/137 69/70/138 68/71/139 67/72/140
f 72/68/136 71/67/135 157/73/141 158/74/142
s 6
f 157/73/143 71/67/144 73/75/145 156/76/146
s 7
f 156/169/147 73/173/148 75/77/149 155/78/150
s 8
f 89/79/151 90/80/152 77/81/153 78/82/154
s 9
f 74/83/155 76/84/156 86/85/157 87/86/158
s 10
f 155/78/159 75/77/160 142/87/161 154/88/162
s 11
f 89/79/163 78/82/164 140/89/165 141/90/166
s 12
f 86/85/167 76/84/168 143/91/169 144/92/170
f 80/93/171 86/85/167 144/92/170 145/94/172
s 9
f 87/86/158 86/85/157 80/93/173 79/95/174
s 11
f 75/77/175 89/79/163 141/90/166 142/87/176
s 8
f 75/77/177 73/173/178 90/80/152 89/79/151
s off
f 81/96/179 88/170/180 92/98/181 91/176/182
f 85/100/183 82/168/184 93/102/185 94/103/186
f 91/99/187 92/177/188 96/104/189 95/105/190
f 94/103/191 93/102/192 97/106/193 98/107/194
f 96/104/195 92/177/196 99/108/197 100/109/198
f 94/103/199 98/107/200 102/110/201 101/111/202
f 97/106/203 93/102/204 103/112/205 104/113/206
s 13
f 91/99/207 95/105/208 116/114/209 117/115/210
s off
f 98/107/211 97/106/212 107/116/213 108/117/214
f 102/110/215 98/107/216 108/117/217 109/118/218
f 97/106/219 104/113/220 110/119/221 107/116/222
f 95/105/223 96/104/224 112/120/225 111/121/226
f 96/104/227 100/109/228 113/122/229 112/120/230
s 14
f 116/114/231 95/105/232 111/121/233 115/174/234
f 106/124/235 116/114/231 115/174/234 114/125/236
s 13
f 117/115/210 116/114/209 106/124/237 105/126/238
s off
f 115/123/239 111/175/240 118/127/241 119/128/242
f 119/128/243 118/127/244 120/129/245 121/130/246
f 120/129/247 118/127/248 122/131/249 123/132/250
f 119/128/251 121/130/252 125/133/253 124/134/254
s 15
f 131/135/255 132/136/256 126/137/257 127/138/258
s 16
f 132/136/259 133/139/260 128/140/261 126/137/262
s 17
f 130/141/263 131/135/264 127/138/265 129/142/266
f 125/133/267 121/130/268 131/135/264 130/141/263
s 15
f 121/130/269 120/129/270 132/136/256 131/135/255
s 16
f 120/129/271 123/132/272 133/139/260 132/136/259
s off
f 125/133/273 130/141/274 135/143/275 134/144/276
f 134/144/277 135/143/278 137/145/279 136/146/280
f 134/144/281 136/146/282 139/147/283 138/148/284
s 11
f 141/90/166 140/89/165 146/149/285 147/150/286
s 12
f 145/94/172 144/92/170 150/151/287 151/152/288
s 11
f 147/150/286 146/149/285 83/153/289 88/97/290
f 148/154/291 147/150/286 88/97/290 81/172/292
s 10
f 153/155/293 148/154/294 81/172/295 152/156/296
s 12
f 150/151/287 149/157/297 82/101/298 85/171/299
f 151/152/288 150/151/287 85/171/299 84/158/300
s 10
f 160/159/301 153/155/293 152/156/296 159/160/302
f 161/161/303 154/88/162 153/155/293 160/159/301
f 162/162/304 155/78/159 154/88/162 161/161/303
s 7
f 163/166/305 156/169/147 155/78/150 162/162/306
s 6
f 164/164/307 157/73/143 156/76/146 163/163/308
s 4
f 158/74/142 157/73/141 164/164/309 165/165/310
s 10
f 149/157/311 160/159/301 159/160/302 82/101/312
f 76/84/313 162/162/304 161/161/303 143/91/314
s 7
f 74/83/315 163/166/305 162/162/306 76/84/316
s 6
f 69/70/317 164/164/307 163/163/308 74/167/318
s 4
f 165/165/310 164/164/309 69/70/138 70/69/137
